<svg xmlns="http://www.w3.org/2000/svg" width="97.5" height="97.8" viewBox="0 0 97.5 97.8"><circle fill="none" stroke="#426580" stroke-width="5.036" stroke-miterlimit="10" cx="49" cy="49" r="46.3"/><path fill="#426580" d="M68.6 64.3H29.4c-2.9 0-5.3-2.4-5.3-5.3V36.4c0-2.9 2.4-5.3 5.3-5.3h39.2c2.9 0 5.3 2.4 5.3 5.3v22.7c0 2.9-2.4 5.2-5.3 5.2z"/><path fill="#426580" stroke="#426580" stroke-width="5.036" stroke-miterlimit="10" d="M59.5 81.2h-21c-1 0-1.9-.8-1.9-1.9 0-1 .8-1.9 1.9-1.9h21c1 0 1.9.8 1.9 1.9 0 1-.9 1.9-1.9 1.9z"/><path fill="none" stroke="#6AA1CC" stroke-width="5.036" stroke-miterlimit="10" d="M69.2 70.2H28.8c-6.6 0-12-5.4-12-12V37.4c0-6.6 5.4-12 12-12h40.4c6.6 0 12 5.4 12 12v20.8c0 6.6-5.4 12-12 12z"/></svg>